<?xml version="1.0" standalone="no"?>
<!DOCTYPE svg PUBLIC "-//W3C//DTD SVG 20010904//EN"
 "http://www.w3.org/TR/2001/REC-SVG-20010904/DTD/svg10.dtd">
<svg version="1.0" xmlns="http://www.w3.org/2000/svg"
 width="500.000000pt" height="500.000000pt" viewBox="0 0 500.000000 500.000000"
 preserveAspectRatio="xMidYMid meet">

<g transform="translate(0.000000,500.000000) scale(0.100000,-0.100000)"
fill="#000000" stroke="none">
<path d="M2644 4355 c16 -131 28 -191 42 -205 13 -13 14 -11 9 15 -3 17 -12
72 -20 124 -8 52 -20 99 -26 105 -9 8 -10 -2 -5 -39z"/>
<path d="M1960 4301 c0 -6 4 -13 10 -16 6 -3 7 1 4 9 -7 18 -14 21 -14 7z"/>
<path d="M1995 4240 c9 -16 18 -30 21 -30 2 0 -2 14 -11 30 -9 17 -18 30 -21
30 -2 0 2 -13 11 -30z"/>
<path d="M3310 4191 c-6 -23 -25 -85 -41 -139 -17 -53 -36 -130 -42 -171 l-12
-74 -87 -23 c-102 -27 -162 -54 -242 -107 -72 -49 -180 -153 -171 -167 12 -19
31 -10 80 41 96 98 234 176 366 206 42 9 73 22 78 32 5 9 14 45 20 81 6 36 29
125 51 199 36 118 39 137 26 149 -13 13 -16 10 -26 -27z"/>
<path d="M2040 4161 c0 -6 4 -13 10 -16 6 -3 7 1 4 9 -7 18 -14 21 -14 7z"/>
<path d="M2952 3938 c-17 -17 -15 -63 3 -78 13 -10 15 -9 15 12 0 29 17 48 43
48 10 0 17 5 15 13 -6 17 -60 21 -76 5z"/>
<path d="M3612 3888 c-16 -16 -15 -63 2 -77 11 -9 15 -5 20 19 4 24 12 32 36
36 24 5 28 9 19 20 -14 17 -61 18 -77 2z"/>
<path d="M2305 3833 c-11 -2 -56 -11 -100 -19 -262 -49 -499 -176 -695 -373
-374 -375 -496 -874 -334 -1359 14 -42 30 -84 35 -94 7 -13 -22 -47 -141 -164
-143 -141 -149 -148 -133 -166 16 -18 17 -18 27 0 6 11 66 73 134 137 67 65
127 126 132 136 8 13 4 35 -14 81 -66 177 -96 399 -77 573 37 338 172 611 422
850 260 250 583 377 954 376 129 -1 274 -20 338 -46 9 -4 17 -3 17 3 0 9 -112
43 -208 62 -51 10 -315 12 -357 3z"/>
<path d="M3853 3753 c-29 -30 -53 -60 -53 -69 0 -8 -7 -26 -16 -39 -15 -24
-15 -25 4 -25 13 0 29 15 45 43 14 23 39 55 56 71 29 28 40 60 24 68 -5 2 -32
-20 -60 -49z"/>
<path d="M3370 3791 c0 -11 13 -15 95 -31 33 -7 88 -23 123 -36 34 -13 62 -21
62 -18 0 10 -117 56 -189 75 -85 22 -91 22 -91 10z"/>
<path d="M2387 3683 c-4 -3 -7 -21 -7 -40 0 -23 5 -33 15 -33 10 0 15 10 15
28 0 31 -13 56 -23 45z"/>
<path d="M2516 3683 c-3 -3 -6 -113 -6 -244 0 -267 8 -241 -82 -254 -51 -7
-48 -2 -52 -82 -2 -30 22 -25 29 7 7 33 30 50 67 50 13 0 34 7 46 16 22 15 22
18 22 259 0 221 -4 267 -24 248z"/>
<path d="M1748 3442 c-39 -28 -49 -52 -23 -52 19 0 86 60 79 71 -8 13 -15 11
-56 -19z"/>
<path d="M2135 3438 c-11 -44 -1 -231 13 -236 9 -3 12 26 12 122 0 116 -12
168 -25 114z"/>
<path d="M3225 3405 c-5 -2 -34 -11 -64 -20 -100 -31 -169 -90 -223 -190 -31
-56 -33 -66 -33 -160 0 -89 3 -107 29 -162 16 -35 34 -67 41 -73 7 -5 0 14
-14 42 -23 46 -26 65 -26 153 0 88 3 107 27 157 94 201 347 287 546 184 48
-25 39 -12 -15 19 -25 15 -69 34 -97 41 -46 12 -145 18 -171 9z"/>
<path d="M4190 3390 c6 -11 13 -20 16 -20 2 0 0 9 -6 20 -6 11 -13 20 -16 20
-2 0 0 -9 6 -20z"/>
<path d="M1998 3364 c-27 -13 -48 -26 -48 -29 0 -2 9 -9 21 -15 16 -9 24 -8
37 3 9 8 25 17 35 20 16 6 25 48 10 47 -5 -1 -29 -12 -55 -26z"/>
<path d="M4210 3359 c0 -3 20 -46 45 -95 25 -49 45 -96 45 -104 0 -8 -36 -39
-80 -68 -56 -36 -80 -58 -80 -72 0 -14 -7 -20 -21 -20 -12 0 -19 -5 -17 -12 9
-27 41 -19 82 20 22 21 62 54 89 71 58 39 60 57 12 151 -38 74 -75 139 -75
129z"/>
<path d="M3763 3280 c43 -77 60 -162 54 -275 -3 -85 -9 -112 -38 -180 -27 -66
-47 -94 -110 -157 -114 -116 -238 -168 -392 -164 -91 3 -169 21 -235 55 -59
30 -65 20 -9 -14 79 -46 156 -68 253 -73 166 -8 296 41 411 156 121 120 177
278 155 441 -12 88 -50 185 -91 231 -21 23 -21 22 2 -20z"/>
<path d="M4096 3293 c-65 -20 -48 -38 27 -29 48 6 54 10 50 27 -6 22 -11 22
-77 2z"/>
<path d="M1874 3244 c-16 -38 -13 -114 7 -144 11 -18 10 -19 12 53 2 48 6 62
24 77 17 13 20 20 10 27 -32 25 -38 24 -53 -13z"/>
<path d="M3251 3190 c-102 -24 -154 -157 -91 -232 l20 -23 -11 30 c-21 58 16
152 71 180 34 18 113 20 142 4 15 -8 19 -8 14 0 -19 31 -95 52 -145 41z"/>
<path d="M3566 3148 c46 -88 22 -224 -53 -308 -63 -71 -138 -105 -228 -104
-41 0 -85 7 -107 17 -60 25 -44 9 18 -20 104 -48 231 -29 318 48 100 88 131
235 73 347 -15 28 -30 52 -32 52 -3 0 2 -14 11 -32z"/>
<path d="M1680 3141 c0 -29 34 -151 42 -151 11 0 11 0 -8 78 -16 63 -34 103
-34 73z"/>
<path d="M2216 3104 c-5 -18 -12 -24 -22 -20 -9 3 -12 1 -9 -4 10 -15 52 -12
59 5 6 17 -2 45 -14 45 -4 0 -11 -12 -14 -26z"/>
<path d="M760 3076 c0 -2 7 -7 16 -10 8 -3 12 -2 9 4 -6 10 -25 14 -25 6z"/>
<path d="M1432 3068 c-15 -15 -16 -51 0 -46 6 2 16 12 22 21 14 22 -4 43 -22
25z"/>
<path d="M1903 3008 c-38 -13 -40 -19 -14 -35 16 -10 25 -9 48 2 39 21 94 19
161 -6 31 -11 65 -23 74 -26 21 -6 34 19 23 45 -6 15 -8 14 -18 -6 -12 -26
-13 -26 -102 12 -63 27 -118 31 -172 14z"/>
<path d="M2510 2963 c0 -36 -8 -46 -137 -170 -110 -105 -135 -135 -125 -145
14 -14 22 -7 185 152 96 93 97 95 97 142 0 26 -4 50 -10 53 -6 4 -10 -9 -10
-32z"/>
<path d="M1640 2829 c-104 -78 -153 -109 -173 -109 -16 0 -26 -4 -22 -10 3 -5
24 -10 47 -10 35 0 56 12 175 100 75 55 142 100 150 100 8 0 24 -5 36 -11 22
-10 22 -10 2 6 -62 51 -57 53 -215 -66z"/>
<path d="M1950 2836 c0 -2 7 -7 16 -10 8 -3 12 -2 9 4 -6 10 -25 14 -25 6z"/>
<path d="M2100 2801 c-8 -20 -17 -28 -28 -25 -10 3 -7 -1 5 -7 30 -16 53 -5
53 25 0 37 -16 40 -30 7z"/>
<path d="M1990 2816 c0 -3 14 -12 30 -21 17 -9 30 -13 30 -11 0 3 -13 12 -30
21 -16 9 -30 13 -30 11z"/>
<path d="M4152 2781 c2 -19 9 -37 17 -39 11 -4 12 2 7 24 -11 45 -28 55 -24
15z"/>
<path d="M1740 2710 c0 -6 37 -10 90 -10 53 0 90 4 90 10 0 6 -37 10 -90 10
-53 0 -90 -4 -90 -10z"/>
<path d="M4399 2520 c-2 -193 7 -180 -129 -213 -63 -15 -119 -32 -125 -38 -12
-12 -64 -240 -58 -255 2 -7 11 -15 19 -18 10 -4 14 2 14 19 0 46 43 208 59
224 9 9 62 27 118 39 57 13 107 30 115 39 18 22 18 289 1 318 -10 16 -13 -5
-14 -115z"/>
<path d="M2735 2574 c-50 -37 -585 -561 -585 -573 0 -6 9 -11 21 -11 22 0 591
541 597 568 6 23 -12 32 -33 16z"/>
<path d="M1755 2483 l-106 -98 -192 -5 c-259 -7 -251 -24 13 -28 l199 -2 111
101 c60 56 110 108 110 115 0 31 -35 9 -135 -83z"/>
<path d="M1277 2534 c-9 -3 -15 -10 -12 -15 8 -12 155 -12 155 1 0 6 -8 10
-19 10 -10 0 -38 2 -62 4 -24 3 -52 2 -62 0z"/>
<path d="M2586 2171 c-148 -142 -268 -262 -267 -267 5 -32 64 15 289 230 138
131 253 245 256 253 4 8 3 21 -1 28 -6 10 -87 -62 -277 -244z"/>
<path d="M613 2313 c8 -12 196 -57 204 -49 7 7 -39 25 -97 37 -100 21 -113 22
-107 12z"/>
<path d="M3498 2255 l-22 -45 -159 0 c-122 0 -158 -3 -154 -12 3 -10 46 -13
173 -13 l169 0 23 43 c23 41 24 72 2 72 -6 0 -20 -20 -32 -45z"/>
<path d="M1372 2120 c-40 -38 -47 -60 -18 -60 15 0 86 72 86 88 0 23 -25 12
-68 -28z"/>
<path d="M1737 1764 c-180 -174 -325 -320 -322 -325 4 -5 13 -9 21 -9 8 0 155
134 325 298 171 163 319 298 330 300 10 2 19 6 19 10 -1 12 -27 42 -36 42 -5
0 -156 -143 -337 -316z"/>
<path d="M3640 2050 c-10 -19 -22 -20 -288 -22 -237 -3 -274 -5 -253 -16 28
-17 522 -18 552 -1 20 10 26 44 10 54 -6 3 -15 -3 -21 -15z"/>
<path d="M2855 1973 c3 -32 10 -89 15 -128 5 -38 14 -117 20 -175 7 -58 16
-129 21 -159 14 -84 12 -141 -6 -147 -8 -4 -12 -10 -9 -15 8 -14 44 -11 50 5
3 7 -11 149 -31 315 -29 239 -34 305 -25 316 14 17 72 20 101 5 32 -18 21 -3
-15 19 -21 14 -50 21 -80 21 l-47 0 6 -57z"/>
<path d="M1362 1832 c-122 -117 -155 -159 -118 -150 27 6 266 239 266 259 0
10 -3 19 -7 19 -5 -1 -68 -58 -141 -128z"/>
<path d="M2668 1705 l-3 -240 -72 -3 -73 -3 0 -89 c0 -73 -3 -90 -15 -90 -8 0
-15 -4 -15 -10 0 -5 11 -10 25 -10 28 0 34 14 37 105 l3 60 64 6 c37 4 67 12
72 20 5 8 9 113 9 235 0 177 -3 224 -15 240 -12 17 -14 -8 -17 -221z"/>
<path d="M3262 1870 c-28 -17 -32 -23 -22 -35 16 -19 25 -19 50 2 19 17 28 53
13 53 -5 0 -23 -9 -41 -20z"/>
<path d="M3539 1869 c-15 -29 3 -46 25 -24 9 9 16 23 16 31 0 21 -28 17 -41
-7z"/>
<path d="M3020 1858 c0 -15 5 -30 10 -33 13 -8 13 25 0 45 -8 12 -10 9 -10
-12z"/>
<path d="M4304 1838 c-6 -7 -36 -65 -68 -128 -86 -172 -64 -159 -205 -120
-101 28 -123 31 -136 20 -30 -25 -135 -171 -135 -188 0 -9 9 -28 20 -42 18
-23 19 -23 14 -4 -7 27 6 51 63 127 72 94 76 95 192 63 54 -15 109 -26 122
-24 20 2 37 28 93 139 53 104 67 139 59 153 -8 14 -11 15 -19 4z"/>
<path d="M3107 1768 c-51 -36 -54 -45 -32 -108 20 -57 19 -64 -10 -80 -14 -7
-25 -17 -25 -21 0 -13 31 -19 51 -9 22 12 24 32 7 96 l-13 46 38 34 c22 21 47
34 63 34 l27 0 -23 20 c-13 11 -26 20 -29 20 -4 0 -28 -15 -54 -32z"/>
<path d="M3286 1749 c-18 -14 -24 -25 -18 -31 13 -13 49 -1 56 19 11 28 -9 35
-38 12z"/>
<path d="M2017 1664 c-38 -37 -45 -49 -36 -60 15 -18 36 -18 46 0 4 8 25 28
45 44 36 28 37 30 19 46 -9 9 -19 16 -22 16 -2 0 -26 -21 -52 -46z"/>
<path d="M2232 1624 c-33 -33 -34 -37 -18 -46 14 -8 24 -4 47 18 29 28 39 64
18 64 -6 0 -27 -16 -47 -36z"/>
<path d="M3343 1605 c-3 -9 -3 -18 0 -22 10 -10 37 6 37 22 0 20 -29 20 -37 0z"/>
<path d="M868 1582 c-82 -27 -47 -51 41 -29 50 13 51 14 33 30 -10 9 -20 16
-23 16 -2 -1 -25 -9 -51 -17z"/>
<path d="M1822 1477 c-29 -29 -52 -57 -52 -63 0 -6 9 -19 20 -29 17 -15 20
-15 20 -3 0 8 24 38 53 66 41 38 52 54 45 66 -15 26 -31 19 -86 -37z"/>
<path d="M2830 1491 c0 -6 5 -13 10 -16 6 -3 10 1 10 9 0 9 -4 16 -10 16 -5 0
-10 -4 -10 -9z"/>
<path d="M2054 1434 c-48 -48 -54 -58 -40 -66 13 -7 28 1 64 32 52 47 66 65
57 80 -11 18 -24 11 -81 -46z"/>
<path d="M1814 1208 c-35 -33 -64 -65 -64 -70 0 -4 10 -8 23 -8 27 0 127 97
127 123 0 29 -19 19 -86 -45z"/>
<path d="M3905 1177 c-11 -26 -216 -207 -235 -207 -13 0 -13 -1 0 -10 32 -20
58 -8 143 68 107 95 123 116 109 145 -9 21 -10 21 -17 4z"/>
<path d="M3345 1099 c-105 -61 -100 -47 -65 -194 17 -71 30 -138 28 -149 -3
-24 -52 -50 -180 -97 -87 -31 -104 -49 -48 -49 49 0 245 83 254 107 3 8 -7 73
-24 145 -22 94 -27 134 -20 148 13 23 150 100 179 100 20 0 21 2 7 15 -23 24
-56 17 -131 -26z"/>
<path d="M1381 1040 c-47 -39 -92 -70 -100 -70 -14 0 -14 -1 -1 -10 30 -19 56
-9 128 50 41 33 80 60 88 60 12 0 12 4 4 20 -6 11 -16 20 -23 20 -7 0 -50 -32
-96 -70z"/>
<path d="M2068 883 c-9 -10 -42 -69 -74 -132 -32 -62 -63 -115 -69 -118 -10
-3 -128 36 -219 73 -13 5 -17 4 -12 -4 10 -17 217 -93 245 -90 22 3 35 21 86
117 33 63 69 120 81 127 19 13 84 8 159 -13 18 -5 18 -3 5 9 -8 8 -51 22 -95
31 -98 21 -89 21 -107 0z"/>
<path d="M2765 883 c-38 -8 -75 -19 -82 -25 -13 -11 -14 -16 -37 -182 -9 -60
-19 -113 -24 -118 -5 -5 -66 -9 -135 -9 -117 0 -152 -7 -111 -23 9 -3 71 -6
139 -6 94 0 125 3 134 14 7 8 19 61 26 118 23 166 23 167 54 182 15 8 58 20
94 27 54 10 64 15 56 26 -14 16 -25 16 -114 -4z"/>
</g>
</svg>
