<?xml version="1.0" standalone="no"?>
<!DOCTYPE svg PUBLIC "-//W3C//DTD SVG 20010904//EN"
 "http://www.w3.org/TR/2001/REC-SVG-20010904/DTD/svg10.dtd">
<svg version="1.0" xmlns="http://www.w3.org/2000/svg"
 width="500.000000pt" height="500.000000pt" viewBox="0 0 500.000000 500.000000"
 preserveAspectRatio="xMidYMid meet">

<g transform="translate(0.000000,500.000000) scale(0.100000,-0.100000)"
fill="#000000" stroke="none">
<path d="M0 2500 l0 -2500 2500 0 2500 0 0 2500 0 2500 -2500 0 -2500 0 0
-2500z m2630 1936 c0 -2 9 -64 20 -137 12 -83 25 -139 35 -148 16 -16 108 -39
162 -40 36 -1 49 15 138 167 26 45 51 82 54 82 10 0 235 -86 260 -99 11 -7 21
-17 21 -24 0 -12 -18 -74 -61 -214 -11 -38 -26 -101 -32 -142 l-13 -74 -84
-23 c-158 -42 -251 -94 -366 -206 -62 -59 -73 -67 -84 -53 -16 19 -14 20 105
143 49 51 91 97 93 101 3 8 -113 43 -206 61 -77 15 -324 12 -417 -5 -158 -28
-251 -58 -380 -120 -146 -71 -241 -139 -365 -264 -241 -243 -366 -500 -400
-825 -19 -181 15 -418 84 -583 l24 -58 -148 -150 -148 -150 233 -239 c224
-230 235 -239 253 -223 10 9 21 17 24 17 3 0 92 -88 199 -195 106 -107 196
-194 200 -193 4 2 89 83 189 182 174 171 183 178 213 172 71 -15 343 -18 427
-6 478 69 880 363 1079 790 73 157 111 294 132 467 11 89 16 106 39 128 l26
25 65 -29 c35 -16 67 -27 72 -24 4 2 17 23 28 45 l21 41 -51 51 c-53 54 -59
71 -40 125 11 31 13 32 62 29 l51 -3 4 -40 c2 -22 7 -43 11 -48 4 -4 56 -20
117 -35 l109 -28 8 -54 c10 -68 4 -277 -9 -290 -5 -5 -54 -19 -109 -31 -55
-11 -109 -27 -119 -33 -14 -9 -27 -45 -47 -131 -14 -66 -25 -124 -23 -130 5
-11 42 -36 144 -98 36 -22 68 -44 71 -50 10 -15 -136 -307 -153 -307 -5 0 -58
14 -119 31 -61 17 -117 28 -124 25 -22 -8 -145 -169 -145 -189 0 -10 32 -65
71 -122 55 -80 70 -109 66 -128 -6 -20 -81 -94 -187 -183 -40 -34 -48 -30
-163 70 -48 43 -95 78 -105 78 -20 1 -165 -76 -182 -97 -12 -14 -9 -29 42
-238 9 -34 9 -53 1 -65 -10 -16 -192 -94 -250 -106 -26 -6 -30 -3 -53 41 -97
185 -114 213 -131 218 -26 8 -176 -24 -190 -41 -5 -7 -19 -74 -30 -150 -10
-76 -23 -142 -27 -146 -5 -5 -73 -7 -153 -6 l-144 3 -21 148 c-12 91 -26 152
-34 157 -7 4 -51 15 -98 25 -104 20 -95 27 -178 -133 -58 -111 -63 -117 -90
-114 -36 4 -234 80 -252 97 -11 10 -10 26 9 94 l23 82 -102 102 c-118 117 -98
116 -218 14 -37 -31 -75 -57 -84 -57 -19 0 -230 196 -230 215 0 7 28 47 62 90
l61 77 -124 124 -124 124 -49 -15 c-27 -8 -56 -15 -65 -15 -18 0 -151 254
-151 288 0 11 16 27 43 42 55 31 160 101 168 113 7 10 -2 62 -26 150 -8 32
-15 67 -15 77 0 29 -35 46 -145 69 -61 13 -105 28 -112 38 -9 12 -13 57 -12
147 2 199 -7 184 129 218 63 16 119 33 125 38 11 9 16 27 51 178 20 88 23 84
-103 157 -47 28 -91 58 -97 68 -16 25 126 307 155 307 11 0 65 -14 121 -30 56
-17 109 -28 119 -25 16 6 149 169 149 184 0 4 -36 56 -80 115 l-81 109 23 24
c13 14 67 63 121 110 l97 85 33 -25 c17 -13 66 -52 107 -86 41 -33 81 -61 90
-61 22 0 161 82 174 102 7 12 2 45 -23 130 -50 171 -50 155 2 177 134 57 240
92 251 81 6 -6 40 -61 76 -123 75 -129 74 -129 196 -102 89 20 87 17 110 178
8 62 17 118 19 125 3 9 43 12 155 12 82 0 150 -2 150 -4z m1072 -433 c146
-128 198 -177 198 -190 0 -8 -20 -34 -45 -57 -25 -23 -49 -54 -53 -70 -13 -49
-33 -53 -83 -19 -102 70 -267 132 -352 133 -31 0 -33 4 -41 73 -7 55 -6 55 90
31 73 -18 70 -19 174 65 41 33 76 61 78 61 1 0 16 -12 34 -27z m-1322 -338 c5
-59 5 -60 38 -63 31 -3 32 -2 33 35 1 21 1 44 0 51 -3 20 19 42 40 42 18 0 19
-12 19 -264 l0 -264 -27 -6 c-16 -3 -44 -8 -64 -12 -31 -5 -38 -11 -43 -36
-10 -53 -8 -57 64 -93 l70 -35 0 -46 c0 -37 -5 -51 -28 -72 -16 -15 -80 -78
-143 -139 -89 -87 -118 -110 -127 -101 -21 21 -13 35 54 95 70 62 100 108 110
170 4 31 0 49 -25 97 l-31 58 0 317 c0 175 3 321 7 325 4 4 16 6 28 4 17 -3
21 -12 25 -63z m1033 -110 c98 -25 148 -56 238 -145 135 -133 177 -240 166
-418 -8 -134 -50 -225 -147 -324 -53 -53 -95 -86 -134 -104 -188 -86 -323 -84
-514 7 -363 174 -381 689 -31 911 53 34 149 73 199 81 60 10 170 6 223 -8z
m631 -54 c34 -46 39 -49 67 -41 27 8 31 6 52 -28 35 -55 137 -262 137 -275 0
-7 -36 -36 -80 -65 -57 -37 -80 -58 -80 -73 0 -17 -5 -20 -37 -17 l-38 3 -3
51 -3 51 70 57 69 57 -15 44 c-8 25 -18 45 -21 45 -4 0 -32 -7 -62 -15 -74
-20 -74 -20 -88 18 -6 18 -30 63 -52 99 -22 37 -40 69 -40 72 0 4 79 63 87 66
1 0 18 -22 37 -49z m-2256 0 c10 -6 -1 -20 -43 -55 -63 -51 -70 -54 -79 -30
-4 10 2 23 16 34 13 10 34 27 48 38 28 24 38 26 58 13z m342 -146 l0 -146 31
-17 c60 -33 68 -44 57 -80 l-9 -33 -57 32 c-31 17 -97 60 -147 94 -49 33 -96
65 -103 69 -8 5 -17 -4 -27 -28 -17 -41 -19 -68 -5 -116 l10 -36 77 1 c71 0
85 -4 151 -38 69 -36 73 -40 67 -65 -9 -37 -10 -37 -49 -18 -60 28 -117 46
-149 46 -40 0 -108 -21 -105 -32 3 -8 201 -119 232 -131 12 -4 -3 -67 -19 -73
-7 -3 -77 31 -156 75 -86 48 -147 77 -153 72 -57 -45 -257 -191 -275 -200 -19
-10 -68 -11 -119 -2 -2 1 45 38 104 84 59 45 118 91 132 103 l25 21 -25 104
c-13 57 -23 109 -21 114 5 14 53 48 59 42 2 -2 16 -51 31 -108 14 -57 27 -105
28 -107 2 -2 24 12 49 30 37 26 46 37 41 53 -3 11 -9 54 -12 97 -5 65 -3 82
16 121 32 65 89 112 205 168 56 27 104 49 109 49 4 0 7 -65 7 -145z m-694
-249 c3 -8 -2 -28 -11 -45 -13 -27 -19 -30 -36 -21 -11 6 -18 14 -16 18 29 63
51 80 63 48z m429 -335 c35 -21 61 -41 58 -45 -10 -10 -243 -7 -243 3 0 12 91
79 108 80 7 1 42 -16 77 -38z m714 -21 c29 -34 79 -83 111 -109 l59 -49 -107
-102 c-59 -56 -195 -187 -302 -291 l-195 -189 -32 36 c-18 20 -37 34 -42 32
-6 -1 -47 -39 -93 -83 -46 -44 -192 -186 -326 -314 l-243 -234 -80 79 -80 79
48 45 c26 24 134 126 238 225 105 100 228 217 275 261 130 121 262 246 405
385 225 218 300 288 305 289 3 0 30 -27 59 -60z m-809 -250 l-125 -120 -206 0
c-183 0 -208 2 -213 16 -4 9 -4 25 -1 35 6 17 18 19 101 19 l94 0 0 39 c0 36
-2 39 -35 45 -20 4 -63 6 -95 5 -33 -1 -63 0 -66 4 -4 3 -3 22 0 42 l7 35 332
-1 332 0 -125 -119z m1056 -42 l27 -33 -106 -100 c-58 -55 -180 -172 -272
-259 l-166 -160 -32 33 -32 32 80 77 c261 252 461 442 467 442 3 0 19 -15 34
-32z m679 -188 l-29 -60 -172 0 -172 0 -31 61 -31 61 37 -6 c86 -15 288 -17
353 -3 36 8 67 13 69 11 3 -3 -8 -31 -24 -64z m-2115 -79 l55 -1 -65 -59 c-36
-33 -68 -56 -72 -53 -3 4 -13 30 -21 59 -17 55 -12 64 28 58 11 -2 45 -4 75
-4z m2255 -123 l-13 -33 -279 -5 -278 -5 113 -58 c61 -31 112 -61 112 -65 0
-4 -17 -18 -37 -31 l-37 -24 25 -20 c13 -10 33 -26 44 -33 19 -14 19 -15 -7
-41 -29 -29 -28 -29 -100 29 l-27 22 -51 -35 c-55 -38 -59 -51 -35 -119 8 -23
15 -46 15 -49 0 -11 -69 -41 -74 -33 -2 4 -14 48 -26 97 -11 50 -27 115 -35
145 -7 30 -16 77 -20 103 l-8 49 37 -24 c28 -18 39 -35 51 -76 l16 -53 60 42
c70 49 73 42 -55 123 -77 48 -97 56 -139 56 l-49 0 7 -67 c3 -38 10 -97 15
-133 5 -36 14 -103 19 -150 6 -47 15 -128 22 -180 15 -118 12 -134 -24 -138
-25 -3 -27 0 -27 30 0 18 -3 50 -6 71 -6 33 -10 37 -33 35 l-26 -3 -9 278 -8
278 23 25 22 24 418 0 418 0 -14 -32z m-2148 -83 c2 -6 -62 -75 -142 -155
-135 -134 -147 -143 -162 -127 -15 15 -7 25 117 144 73 70 138 134 144 140 13
14 38 13 43 -2z m1171 -274 l-3 -246 -72 -3 -73 -3 0 -89 0 -90 -35 0 c-39 0
-43 11 -20 56 12 23 15 76 15 269 l0 240 77 72 c72 70 77 73 95 56 17 -15 18
-33 16 -262z m892 203 c0 -10 -34 -64 -40 -64 -3 0 -12 4 -20 10 -12 8 -12 14
3 45 15 31 20 34 37 25 11 -6 20 -13 20 -16z m-1290 -244 c0 -3 -17 -23 -38
-43 l-38 -37 -59 60 c-33 33 -62 60 -66 60 -6 0 -99 -89 -99 -96 0 -2 34 -26
75 -54 41 -28 75 -54 75 -58 0 -4 -29 -33 -64 -64 l-63 -57 -38 39 c-26 27
-36 44 -31 56 7 18 -19 54 -38 54 -14 0 -116 -101 -116 -115 0 -6 25 -37 55
-69 30 -31 55 -61 55 -65 0 -5 -30 -39 -67 -75 l-68 -66 -47 52 c-52 56 -56
69 -33 88 8 7 15 17 15 23 0 7 -30 42 -67 79 l-68 68 165 157 c91 87 201 192
244 234 l79 76 118 -121 c66 -66 119 -123 119 -126z m1090 -15 c11 -13 8 -19
-15 -39 -25 -22 -30 -23 -43 -9 -13 13 -12 17 9 38 29 29 33 29 49 10z"/>
<path d="M2952 3938 c-7 -7 -12 -26 -12 -43 0 -25 6 -35 26 -44 36 -16 74 8
74 47 0 35 -16 52 -50 52 -14 0 -31 -5 -38 -12z"/>
<path d="M3612 3888 c-21 -21 -14 -66 13 -84 32 -21 56 -15 74 17 13 24 13 29
-2 53 -19 28 -63 36 -85 14z"/>
<path d="M3180 3394 c-107 -29 -190 -96 -244 -199 -29 -56 -31 -67 -31 -165 0
-88 4 -113 23 -154 71 -156 227 -247 395 -233 133 11 249 91 319 221 31 58 33
66 33 166 0 95 -3 111 -28 162 -84 172 -274 254 -467 202z m245 -109 c183 -89
218 -327 69 -465 -75 -69 -163 -97 -253 -80 -103 19 -177 75 -221 166 -36 75
-34 181 5 253 78 143 253 198 400 126z"/>
<path d="M3235 3185 c-105 -38 -136 -171 -58 -250 74 -74 188 -58 250 34 75
112 -59 263 -192 216z"/>
<path d="M1998 3364 c-27 -13 -48 -27 -48 -29 0 -9 93 -65 108 -65 10 0 13 13
10 57 -2 31 -7 58 -13 59 -5 2 -31 -8 -57 -22z"/>
<path d="M1455 2521 c-3 -5 -1 -12 5 -16 5 -3 10 1 10 9 0 18 -6 21 -15 7z"/>
</g>
</svg>
